<svg width="338.000000" height="74.000000" viewBox="0 0 338 74" fill="none" xmlns="http://www.w3.org/2000/svg" xmlns:xlink="http://www.w3.org/1999/xlink">
	<desc>
			Created with Pixso.
	</desc>
	<defs/>
	<path id="EVENTS" d="M29.9 26.55L29.9 22.55C29.9 18.48 29.5 15.71 28.7 14.25C27.9 12.78 26.6 12.05 24.8 12.05C23.4 12.05 22.27 12.41 21.4 13.15C20.6 13.88 19.97 15.18 19.5 17.04C19.1 18.91 18.83 21.45 18.7 24.65C18.57 27.78 18.5 31.75 18.5 36.55Q18.5 43.75 18.7 48.55C18.83 51.68 19.1 54.18 19.5 56.05C19.97 57.91 20.6 59.21 21.4 59.95C22.27 60.68 23.4 61.05 24.8 61.05C25.93 61.05 26.87 60.78 27.6 60.25Q28.7 59.35 29.3 57.35C29.7 56.01 29.97 54.25 30.1 52.05C30.3 49.78 30.4 46.95 30.4 43.55L48.4 43.55L48.4 48.85C48.4 53.85 47.73 57.95 46.4 61.15Q44.4 65.94 41.1 68.75C38.9 70.55 36.37 71.75 33.5 72.35C30.7 73.01 27.8 73.35 24.8 73.35C19.6 73.35 15.33 72.71 12 71.44Q9.18 70.37 7.06 68.51Q5.42 67.07 4.2 65.15Q1.4 60.65 0.3 53.65Q-0.7 46.55 -0.7 36.55Q-0.7 26.35 0.5 19.25Q1.8 12.15 4.8 7.74Q6.41 5.38 8.57 3.74Q10.43 2.32 12.7 1.45C15.97 0.11 20 -0.56 24.8 -0.56Q31.1 -0.56 35.5 1.04C38.43 2.11 40.8 3.64 42.6 5.65C44.47 7.58 45.8 9.95 46.6 12.75C47.47 15.48 47.9 18.58 47.9 22.05L47.9 26.55L29.9 26.55ZM335.88 21.45L318.48 21.45L318.48 19.75C318.48 17.61 318.04 15.81 317.18 14.35C316.31 12.81 314.98 12.05 313.18 12.05C311.18 12.05 309.71 12.71 308.78 14.05C307.85 15.31 307.38 16.75 307.38 18.35C307.38 20.68 308.11 22.55 309.58 23.95C311.11 25.28 313.01 26.45 315.28 27.45C317.54 28.45 319.98 29.48 322.58 30.55C325.18 31.55 327.61 32.88 329.88 34.55C332.15 36.21 334.01 38.41 335.48 41.15Q337.78 45.15 337.78 51.65C337.78 59.25 335.61 64.78 331.28 68.25Q324.78 73.35 312.48 73.35C308.61 73.35 305.18 73.01 302.18 72.35Q297.78 71.44 294.68 69.15C292.68 67.55 291.15 65.48 290.08 62.95Q288.48 59.15 288.48 53.55L288.48 51.05L306.48 51.05L306.48 52.75C306.48 55.81 307.04 57.98 308.18 59.25C309.31 60.45 310.78 61.05 312.58 61.05C314.51 61.05 315.98 60.38 316.98 59.05C318.04 57.71 318.58 56.08 318.58 54.15C318.58 51.81 317.85 49.98 316.38 48.65C314.98 47.25 313.18 46.08 310.98 45.15C308.85 44.15 306.51 43.15 303.98 42.15C301.45 41.15 299.08 39.84 296.88 38.25C294.75 36.65 292.95 34.55 291.48 31.95C290.08 29.35 289.38 25.95 289.38 21.75C289.38 14.48 291.31 8.95 295.18 5.15Q300.98 -0.56 312.78 -0.56C320.91 -0.56 326.78 1.21 330.38 4.75C334.05 8.21 335.88 13.78 335.88 21.45ZM75.11 72.25L75.11 0.84L93.71 0.84L93.71 27.05L105.11 27.05L105.11 0.84L123.71 0.84L123.71 72.25L105.11 72.25L105.11 42.85L93.71 42.85L93.71 72.25L75.11 72.25ZM152.53 72.25L152.53 0.84L194.83 0.84L194.83 16.04L171.13 16.04L171.13 28.25L193.33 28.25L193.33 42.85L171.13 42.85L171.13 57.05L195.73 57.05L195.73 72.25L152.53 72.25ZM222.53 72.25L222.53 0.84L264.83 0.84L264.83 16.04L241.13 16.04L241.13 28.25L263.33 28.25L263.33 42.85L241.13 42.85L241.13 72.25L222.53 72.25Z" fill="#303030" fill-opacity="1.000000" fill-rule="evenodd"/>
</svg>
