<svg width="60.000000" height="60.000000" viewBox="0 0 60 60" fill="none" xmlns="http://www.w3.org/2000/svg" xmlns:xlink="http://www.w3.org/1999/xlink">
	<desc>
			Created with Pixso.
	</desc>
	<defs>
		<clipPath id="clip2_232">
			<rect id="1. Buttons/1. Large/6. Rounded/1. White" width="60.000000" height="60.000000" transform="matrix(-1 0 0 1 60 0)" fill="white" fill-opacity="0"/>
		</clipPath>
	</defs>
	<rect id="1. Buttons/1. Large/6. Rounded/1. White" width="60.000000" height="60.000000" transform="matrix(-1 0 0 1 60 0)" fill="#FFFFFF" fill-opacity="0"/>
	<g clip-path="url(#clip2_232)">
		<path id="placeholder" d="M30 0C46.56 0 60 13.43 60 30C60 46.56 46.56 60 30 60C13.43 60 0 46.56 0 30C0 13.43 13.43 0 30 0Z" fill="#262626" fill-opacity="1.000000" fill-rule="evenodd"/>
		<path id="placeholder" d="M60 30C60 13.43 46.56 0 30 0C13.43 0 0 13.43 0 30C0 46.56 13.43 60 30 60C46.56 60 60 46.56 60 30ZM55.94 40.74Q58 35.79 58 30Q58 24.2 55.94 19.25Q53.89 14.3 49.79 10.2Q45.69 6.1 40.74 4.05Q35.79 2 30 2Q24.2 1.99 19.25 4.05Q14.3 6.1 10.2 10.2Q6.1 14.3 4.05 19.25Q2 24.2 2 30Q2 35.79 4.05 40.74Q6.1 45.69 10.2 49.79Q14.3 53.89 19.25 55.94Q24.2 58 30 58Q35.79 58 40.74 55.94Q45.69 53.89 49.79 49.79Q53.89 45.69 55.94 40.74Z" fill="#303030" fill-opacity="1.000000" fill-rule="evenodd"/>
		<mask id="mask2_235" mask-type="alpha" maskUnits="userSpaceOnUse" x="22.000000" y="22.000000" width="16.000000" height="16.000000">
			<path id="Icon" d="M22 29L34.16 29L28.58 23.41L30 22L38 30L30 38L28.59 36.59L34.16 31L22 31L22 29Z" fill="#000000" fill-opacity="1.000000" fill-rule="evenodd"/>
		</mask>
		<g mask="url(#mask2_235)">
			<rect id="Gray 85" width="26.000000" height="26.000000" transform="matrix(-1 0 0 1 43 17)" fill="#4D4D4D" fill-opacity="1.000000"/>
		</g>
	</g>
</svg>
