<svg width="20.000000" height="20.000000" viewBox="0 0 20 20" fill="none" xmlns="http://www.w3.org/2000/svg" xmlns:xlink="http://www.w3.org/1999/xlink">
	<desc>
			Created with Pixso.
	</desc>
	<defs/>
	<mask id="mask2_283" mask-type="alpha" maskUnits="userSpaceOnUse" x="0.000000" y="0.000000" width="20.000000" height="20.000000">
		<path id="Icon" d="M15 1L15 10C15 10.55 14.55 11 14 11L4 11L0 15L0 1C0 0.449951 0.449951 0 1 0L14 0C14.55 0 15 0.449951 15 1ZM19 4L17 4L17 13L4 13L4 15C4 15.55 4.44995 16 5 16L16 16L20 20L20 5C20 4.44995 19.55 4 19 4Z" clip-rule="evenodd" fill="#000000" fill-opacity="1.000000" fill-rule="evenodd"/>
	</mask>
	<g mask="url(#mask2_283)">
		<rect id="Gray 85" x="-3.000000" y="-3.000000" width="26.000000" height="26.000000" fill="#191919" fill-opacity="1.000000"/>
	</g>
</svg>
