<svg width="22.000000" height="15.000000" viewBox="0 0 22 15" fill="none" xmlns="http://www.w3.org/2000/svg" xmlns:xlink="http://www.w3.org/1999/xlink">
	<desc>
			Created with Pixso.
	</desc>
	<defs/>
	<mask id="mask2_274" mask-type="alpha" maskUnits="userSpaceOnUse" x="0.000000" y="-0.500000" width="22.000000" height="15.000000">
		<path id="Icon" d="M11 -0.5C6 -0.5 1.72998 2.61011 0 7C1.72998 11.3899 6 14.5 11 14.5C16 14.5 20.27 11.3899 22 7C20.27 2.61011 16 -0.5 11 -0.5ZM11 12C8.23999 12 6 9.76001 6 7C6 4.23999 8.23999 2 11 2C13.76 2 16 4.23999 16 7C16 9.76001 13.76 12 11 12ZM8 7C8 5.34009 9.33997 4 11 4C12.66 4 14 5.34009 14 7C14 8.65991 12.66 10 11 10C9.33997 10 8 8.65991 8 7Z" clip-rule="evenodd" fill="#000000" fill-opacity="1.000000" fill-rule="evenodd"/>
	</mask>
	<g mask="url(#mask2_274)">
		<rect id="Gray 85" x="-2.000000" y="-6.000000" width="26.000000" height="26.000000" fill="#191919" fill-opacity="1.000000"/>
	</g>
</svg>
