<svg width="458.000000" height="74.000000" viewBox="0 0 458 74" fill="none" xmlns="http://www.w3.org/2000/svg" xmlns:xlink="http://www.w3.org/1999/xlink">
	<desc>
			Created with Pixso.
	</desc>
	<defs/>
	<path id="EVENTS" d="M175.32 26.55L175.32 22.55C175.32 18.48 174.92 15.71 174.12 14.25C173.32 12.78 172.02 12.05 170.22 12.05C168.82 12.05 167.68 12.41 166.82 13.15C166.02 13.88 165.38 15.18 164.92 17.04C164.52 18.91 164.25 21.45 164.12 24.65Q163.92 29.35 163.92 36.55Q163.92 43.75 164.12 48.55C164.25 51.68 164.52 54.18 164.92 56.05C165.38 57.91 166.02 59.21 166.82 59.95C167.68 60.68 168.82 61.05 170.22 61.05C171.35 61.05 172.28 60.78 173.02 60.25Q174.12 59.35 174.72 57.35C175.12 56.01 175.38 54.25 175.52 52.05C175.72 49.78 175.82 46.95 175.82 43.55L193.82 43.55L193.82 48.85C193.82 53.85 193.15 57.95 191.82 61.15Q189.82 65.94 186.52 68.75C184.32 70.55 181.78 71.75 178.92 72.35C176.12 73.01 173.22 73.35 170.22 73.35C165.02 73.35 160.75 72.71 157.42 71.44C154.08 70.18 151.48 68.08 149.62 65.15C147.75 62.15 146.45 58.31 145.72 53.65C145.05 48.91 144.72 43.21 144.72 36.55C144.72 29.75 145.12 23.98 145.92 19.25Q147.22 12.15 150.22 7.74Q151.83 5.38 153.99 3.74Q155.85 2.32 158.12 1.45C161.38 0.11 165.42 -0.56 170.22 -0.56Q176.52 -0.56 180.92 1.04C183.85 2.11 186.22 3.64 188.02 5.65C189.88 7.58 191.22 9.95 192.02 12.75C192.88 15.48 193.32 18.58 193.32 22.05L193.32 26.55L175.32 26.55ZM455.42 21.45L438.02 21.45L438.02 19.75C438.02 17.61 437.58 15.81 436.72 14.35C435.85 12.81 434.52 12.05 432.72 12.05C430.72 12.05 429.25 12.71 428.32 14.05C427.38 15.31 426.92 16.75 426.92 18.35C426.92 20.68 427.65 22.55 429.12 23.95C430.65 25.28 432.55 26.45 434.82 27.45C437.08 28.45 439.52 29.48 442.12 30.55C444.72 31.55 447.15 32.88 449.42 34.55C451.68 36.21 453.55 38.41 455.02 41.15Q457.32 45.15 457.32 51.65C457.32 59.25 455.15 64.78 450.82 68.25Q444.32 73.35 432.02 73.35C428.15 73.35 424.72 73.01 421.72 72.35Q417.32 71.44 414.22 69.15C412.22 67.55 410.68 65.48 409.62 62.95Q408.02 59.15 408.02 53.55L408.02 51.05L426.02 51.05L426.02 52.75C426.02 55.81 426.58 57.98 427.72 59.25C428.85 60.45 430.32 61.05 432.12 61.05C434.05 61.05 435.52 60.38 436.52 59.05C437.58 57.71 438.12 56.08 438.12 54.15C438.12 51.81 437.38 49.98 435.92 48.65C434.52 47.25 432.72 46.08 430.52 45.15C428.38 44.15 426.05 43.15 423.52 42.15C420.98 41.15 418.62 39.84 416.42 38.25C414.28 36.65 412.48 34.55 411.02 31.95C409.62 29.35 408.92 25.95 408.92 21.75C408.92 14.48 410.85 8.95 414.72 5.15Q420.52 -0.56 432.32 -0.56C440.45 -0.56 446.32 1.21 449.92 4.75C453.58 8.21 455.42 13.78 455.42 21.45ZM-0.6 72.25L-0.6 0.84L28.5 0.84C32.03 0.84 35.03 1.31 37.5 2.24Q41.3 3.64 43.6 6.25C45.2 7.91 46.33 9.91 47 12.25C47.73 14.58 48.1 17.11 48.1 19.85C48.1 24.65 47.13 28.51 45.2 31.45Q44.61 32.33 43.88 33.08Q41 36.05 35.9 36.84L35.9 37.05C40.36 37.45 43.43 39.01 45.1 41.75C46.76 44.48 47.6 48.25 47.6 53.05L47.6 62.05C47.6 63.05 47.63 64.01 47.7 64.94C47.76 65.81 47.86 66.61 48 67.35C48.13 68.08 48.3 68.65 48.5 69.05L49.3 70.25C49.56 70.58 50 70.91 50.6 71.25L50.6 72.25L30.8 72.25C30.33 71.31 29.96 70.21 29.7 68.94C29.5 67.68 29.33 66.41 29.2 65.15C29.13 63.88 29.06 62.68 29 61.55L29 53.85C29 51.85 28.9 50.18 28.7 48.85C28.5 47.51 28.13 46.48 27.6 45.75C27.13 44.95 26.5 44.41 25.7 44.15C24.96 43.81 24.03 43.65 22.9 43.65L18 43.65L18 72.25L-0.6 72.25ZM76.82 72.25L76.82 0.84L119.12 0.84L119.12 16.04L95.42 16.04L95.42 28.25L117.62 28.25L117.62 42.85L95.42 42.85L95.42 57.05L120.02 57.05L120.02 72.25L76.82 72.25ZM219.83 72.25L219.83 0.84L238.43 0.84L238.43 72.25L219.83 72.25ZM265.8 72.25L265.8 0.84L293.7 0.84C297.24 0.84 300.3 1.41 302.9 2.55C305.5 3.68 307.64 5.25 309.3 7.25Q309.67 7.66 310.01 8.09Q312.07 10.71 313.1 14.15C313.9 16.81 314.3 19.71 314.3 22.85Q314.3 33.07 309.21 38.63Q308.78 39.11 308.3 39.55C304.37 43.21 298.57 45.05 290.9 45.05L284.4 45.05L284.4 72.25L265.8 72.25ZM340.22 72.25L340.22 0.84L382.52 0.84L382.52 16.04L358.82 16.04L358.82 28.25L381.02 28.25L381.02 42.85L358.82 42.85L358.82 57.05L383.42 57.05L383.42 72.25L340.22 72.25ZM18 14.25L18 31.05L21.7 31.05C24.36 31.05 26.33 30.28 27.6 28.75C28.86 27.15 29.5 25.08 29.5 22.55C29.5 19.54 28.86 17.41 27.6 16.15C26.4 14.88 24.4 14.25 21.6 14.25L18 14.25ZM284.4 14.25L284.4 31.65L287.9 31.65C290.24 31.65 292 30.95 293.2 29.55C294.47 28.15 295.1 25.95 295.1 22.95C295.1 17.15 292.7 14.25 287.9 14.25L284.4 14.25Z" fill="#303030" fill-opacity="1.000000" fill-rule="evenodd"/>
</svg>
