<svg width="18.000000" height="18.000000" viewBox="0 0 18 18" fill="none" xmlns="http://www.w3.org/2000/svg" xmlns:xlink="http://www.w3.org/1999/xlink">
	<desc>
			Created with Pixso.
	</desc>
	<defs/>
	<mask id="mask8_4" mask-type="alpha" maskUnits="userSpaceOnUse" x="0.000000" y="0.000000" width="18.000000" height="18.000000">
		<path id="Icon" d="M3.62 7.79C5.06 10.62 7.38 12.92 10.21 14.37L12.41 12.17C12.68 11.9 13.08 11.82 13.43 11.93C14.55 12.31 15.76 12.51 17 12.51C17.54 12.51 18 12.96 18 13.51L18 17C18 17.54 17.54 18 17 18C7.6 18 0 10.38 0 1C0 0.44 0.44 0 1 0L4.5 0C5.05 0 5.5 0.44 5.5 1C5.5 2.25 5.69 3.44 6.06 4.57C6.18 4.91 6.09 5.31 5.81 5.59L3.62 7.79Z" fill="#000000" fill-opacity="1.000000" fill-rule="evenodd"/>
	</mask>
	<g mask="url(#mask8_4)">
		<rect id="Gray 85" x="-4.000000" y="-4.000000" width="26.000000" height="26.000000" fill="#FFFFFF" fill-opacity="0.500000"/>
	</g>
</svg>
