<svg width="40.000000" height="40.000000" viewBox="0 0 40 40" fill="none" xmlns="http://www.w3.org/2000/svg" xmlns:xlink="http://www.w3.org/1999/xlink">
	<desc>
			Created with Pixso.
	</desc>
	<defs/>
	<path id="placeholder" d="M20 0C8.95 0 0 8.95 0 20C0 31.04 8.95 40 20 40C31.04 40 40 31.04 40 20C40 8.95 31.04 0 20 0Z" fill="#262626" fill-opacity="1.000000" fill-rule="evenodd"/>
	<path id="placeholder" d="M0 20C0 8.95 8.95 0 20 0C31.04 0 40 8.95 40 20C40 31.04 31.04 40 20 40C8.95 40 0 31.04 0 20ZM3.31 26.9Q2 23.72 2 20Q2 16.27 3.31 13.09Q4.63 9.9 7.27 7.27Q9.9 4.63 13.09 3.31Q16.27 2 20 2Q23.72 2 26.9 3.31Q30.09 4.63 32.72 7.27Q35.36 9.9 36.68 13.09Q38 16.27 38 20Q38 23.72 36.68 26.9Q35.36 30.09 32.72 32.72Q30.09 35.36 26.9 36.68Q23.72 38 20 38Q16.27 38 13.09 36.68Q9.9 35.36 7.27 32.72Q4.63 30.09 3.31 26.9Z" fill="#303030" fill-opacity="1.000000" fill-rule="evenodd"/>
	<rect id="3. Icons/ic_facebook" width="28.000000" height="28.000000" transform="translate(6.000000 6.000000)" fill="#FFFFFF" fill-opacity="0"/>
	<mask id="mask5_163" mask-type="alpha" maskUnits="userSpaceOnUse" x="16.266663" y="11.600098" width="8.400002" height="16.799999">
		<path id="Icon" d="M21.71 28.4L21.71 20.73L24.19 20.73L24.56 17.75L21.71 17.75L21.71 15.84C21.71 14.98 21.95 14.39 23.14 14.39L24.66 14.39L24.66 11.71C24.4 11.67 23.49 11.6 22.44 11.6C20.25 11.6 18.75 12.99 18.75 15.55L18.75 17.75L16.26 17.75L16.26 20.74L18.75 20.74L18.75 28.4L21.71 28.4Z" fill="#000000" fill-opacity="1.000000" fill-rule="evenodd"/>
	</mask>
	<g mask="url(#mask5_163)">
		<rect id="5. Colors/Gray 70" width="24.266666" height="24.266666" transform="translate(7.866699 7.866699)" fill="#FFFFFF" fill-opacity="0"/>
		<rect id="Gray 70" x="7.866699" y="7.866699" width="24.266666" height="24.266666" fill="#737373" fill-opacity="1.000000"/>
	</g>
</svg>
