<svg width="40.000000" height="40.000000" viewBox="0 0 40 40" fill="none" xmlns="http://www.w3.org/2000/svg" xmlns:xlink="http://www.w3.org/1999/xlink">
	
	<path id="placeholder" d="M20 0C8.95 0 0 8.95 0 20C0 31.04 8.95 40 20 40C31.04 40 40 31.04 40 20C40 8.95 31.04 0 20 0Z" fill="#262626" fill-opacity="1.000000" fill-rule="evenodd"/>
	<path id="placeholder" d="M0 20C0 8.95 8.95 0 20 0C31.04 0 40 8.95 40 20C40 31.04 31.04 40 20 40C8.95 40 0 31.04 0 20ZM3.31 26.9Q2 23.72 2 20Q2 16.27 3.31 13.09Q4.63 9.9 7.27 7.27Q9.9 4.63 13.09 3.31Q16.27 2 20 2Q23.72 2 26.9 3.31Q30.09 4.63 32.72 7.27Q35.36 9.9 36.68 13.09Q38 16.27 38 20Q38 23.72 36.68 26.9Q35.36 30.09 32.72 32.72Q30.09 35.36 26.9 36.68Q23.72 38 20 38Q16.27 38 13.09 36.68Q9.9 35.36 7.27 32.72Q4.63 30.09 3.31 26.9Z" fill="#303030" fill-opacity="1.000000" fill-rule="evenodd"/>
	<rect id="3. Icons/ic_instagram" width="28.000000" height="28.000000" transform="translate(6.000000 6.000000)" fill="#FFFFFF" fill-opacity="0"/>
	<mask id="mask5_150" mask-type="alpha" maskUnits="userSpaceOnUse" x="12.533325" y="12.533203" width="14.933334" height="14.933334">
		<path id="Icon" d="M26.2145 13.7854C26.63 14.2007 26.8839 14.6162 27.0743 15.1067C27.2589 15.5798 27.3859 16.1223 27.4205 16.9185C27.4609 17.7148 27.4667 17.9688 27.4667 19.9998C27.4667 22.031 27.4551 22.2849 27.4205 23.0811C27.3859 23.8716 27.2589 24.4199 27.0743 24.8931C26.8839 25.3835 26.63 25.7988 26.2145 26.2144C25.7991 26.6299 25.3836 26.8838 24.8931 27.0742C24.42 27.2588 23.8776 27.3857 23.0813 27.4204C22.285 27.4607 22.0311 27.4666 20 27.4666C17.9689 27.4666 17.715 27.4551 16.9187 27.4204C16.1282 27.3857 15.58 27.2588 15.1069 27.0742C14.6164 26.8838 14.2009 26.6299 13.7855 26.2144C13.37 25.7988 13.1161 25.3835 12.9257 24.8931C12.741 24.4199 12.6141 23.8774 12.5795 23.0811C12.5391 22.2849 12.5333 22.031 12.5333 19.9998C12.5333 17.9688 12.5449 17.7148 12.5795 16.9185C12.6141 16.1279 12.741 15.5798 12.9257 15.1067C13.1161 14.6162 13.37 14.2007 13.7855 13.7854C14.2009 13.3699 14.6164 13.116 15.1069 12.9255C15.58 12.741 16.1224 12.614 16.9187 12.5793C17.715 12.5391 17.9689 12.5332 20 12.5332C22.0311 12.5332 22.285 12.5447 23.0813 12.5793C23.8718 12.614 24.42 12.741 24.8931 12.9255C25.3836 13.116 25.7991 13.3699 26.2145 13.7854ZM25.5578 22.7576C25.5262 23.4221 25.4154 23.7859 25.3205 24.0232C25.1992 24.3396 25.0463 24.5715 24.809 24.8088C24.5717 25.0461 24.345 25.1938 24.0233 25.3203C23.7808 25.4153 23.4222 25.5261 22.7578 25.5576C22.0354 25.5894 21.8245 25.5999 20 25.5999C18.1755 25.5999 17.9593 25.5945 17.2422 25.5576C16.5778 25.5261 16.2139 25.4153 15.9766 25.3203C15.6603 25.1992 15.4282 25.0461 15.191 24.8088C14.9537 24.5715 14.806 24.345 14.6794 24.0232C14.5845 23.7808 14.4738 23.4221 14.4422 22.7576C14.4105 22.0352 14.4 21.8191 14.4 19.9998C14.4 18.1807 14.4053 17.9592 14.4422 17.2419C14.4738 16.5776 14.5845 16.2139 14.6794 15.9766C14.8007 15.6602 14.9537 15.4282 15.191 15.1909C15.4282 14.9536 15.655 14.8059 15.9766 14.6794C16.2192 14.5845 16.5778 14.4736 17.2422 14.4421C17.9646 14.4104 18.1808 14.3999 20 14.3999C21.8192 14.3999 22.0406 14.405 22.7578 14.4421C23.4222 14.4736 23.7861 14.5845 24.0233 14.6794C24.3397 14.8005 24.5717 14.9536 24.809 15.1909C25.0463 15.4282 25.194 15.6548 25.3205 15.9766C25.4154 16.219 25.5262 16.5776 25.5578 17.2419C25.5895 17.9644 25.6 18.1807 25.6 19.9998C25.6 21.8191 25.5895 22.0405 25.5578 22.7576ZM23.7333 17.2C24.2488 17.2 24.6666 16.7822 24.6666 16.2666C24.6666 15.7512 24.2488 15.3333 23.7333 15.3333C23.2178 15.3333 22.8 15.7512 22.8 16.2666C22.8 16.7822 23.2178 17.2 23.7333 17.2ZM16.2667 20C16.2667 17.9397 17.9396 16.2666 20 16.2666C22.0604 16.2666 23.7333 17.9397 23.7333 20C23.7333 22.0603 22.0604 23.7334 20 23.7334C17.9396 23.7334 16.2667 22.0603 16.2667 20ZM18.1333 20C18.1333 21.0327 18.9716 21.8667 20 21.8667C21.0284 21.8667 21.8666 21.0283 21.8666 20C21.8666 18.9673 21.0327 18.1333 20 18.1333C18.9673 18.1333 18.1333 18.9717 18.1333 20Z" clip-rule="evenodd" fill="#000000" fill-opacity="1.000000" fill-rule="evenodd"/>
	</mask>
	<g mask="url(#mask5_150)">
		<rect id="5. Colors/Gray 70" width="24.266666" height="24.266666" transform="translate(7.866699 7.866699)" fill="#FFFFFF" fill-opacity="0"/>
		<rect id="Gray 70" x="7.866699" y="7.866699" width="24.266666" height="24.266666" fill="#737373" fill-opacity="1.000000"/>
	</g>
</svg>
