<svg width="388.000000" height="74.000000" viewBox="0 0 388 74" fill="none" xmlns="http://www.w3.org/2000/svg" xmlns:xlink="http://www.w3.org/1999/xlink">
	<desc>
			Created with Pixso.
	</desc>
	<defs/>
	<path id="SOCIAL" d="M46.6 21.45L29.2 21.45L29.2 19.75C29.2 17.61 28.76 15.81 27.9 14.35C27.03 12.81 25.7 12.05 23.9 12.05C21.9 12.05 20.43 12.71 19.5 14.05C18.56 15.31 18.1 16.75 18.1 18.35C18.1 20.68 18.83 22.55 20.29 23.95C21.83 25.28 23.73 26.45 26 27.45C28.26 28.45 30.7 29.48 33.3 30.55C35.9 31.55 38.33 32.88 40.59 34.55C42.86 36.21 44.73 38.41 46.2 41.15C47.73 43.81 48.5 47.31 48.5 51.65Q48.5 61.63 43.51 66.86Q42.8 67.6 42 68.25Q35.5 73.35 23.2 73.35C19.33 73.35 15.9 73.01 12.9 72.35Q8.5 71.44 5.4 69.15C3.4 67.55 1.86 65.48 0.8 62.95Q-0.8 59.15 -0.8 53.55L-0.8 51.05L17.2 51.05L17.2 52.75C17.2 55.81 17.76 57.98 18.9 59.25C20.03 60.45 21.5 61.05 23.3 61.05C25.23 61.05 26.7 60.38 27.7 59.05C28.76 57.71 29.3 56.08 29.3 54.15C29.3 51.81 28.56 49.98 27.1 48.65C25.7 47.25 23.9 46.08 21.7 45.15C19.56 44.15 17.23 43.15 14.7 42.15C12.16 41.15 9.8 39.84 7.6 38.25C5.46 36.65 3.66 34.55 2.2 31.95C0.8 29.35 0.1 25.95 0.1 21.75Q0.1 11.56 5.16 5.92Q5.51 5.52 5.9 5.15Q11.7 -0.56 23.5 -0.56C31.63 -0.56 37.5 1.21 41.1 4.75Q46.6 9.95 46.6 21.45ZM74.31 53.65C73.44 48.91 73.01 43.21 73.01 36.55C73.01 29.88 73.44 24.21 74.31 19.54Q75.61 12.45 78.61 8.05C80.61 5.05 83.24 2.88 86.51 1.55C89.77 0.15 93.77 -0.56 98.51 -0.56C103.24 -0.56 107.24 0.15 110.51 1.55C113.77 2.88 116.41 5.05 118.41 8.05C120.41 10.98 121.84 14.81 122.71 19.54Q124.01 26.55 124.01 36.55Q124.01 46.55 122.71 53.65C121.84 58.31 120.41 62.15 118.41 65.15C116.41 68.08 113.77 70.18 110.51 71.44C107.24 72.71 103.24 73.35 98.51 73.35C93.77 73.35 89.77 72.71 86.51 71.44Q84.24 70.57 82.38 69.15Q80.22 67.51 78.61 65.15Q75.61 60.65 74.31 53.65ZM179.17 26.55L179.17 22.55C179.17 18.48 178.77 15.71 177.97 14.25C177.17 12.78 175.87 12.05 174.07 12.05C172.67 12.05 171.54 12.41 170.67 13.15C169.87 13.88 169.24 15.18 168.77 17.04C168.37 18.91 168.11 21.45 167.97 24.65Q167.77 29.35 167.77 36.55Q167.77 43.75 167.97 48.55C168.11 51.68 168.37 54.18 168.77 56.05C169.24 57.91 169.87 59.21 170.67 59.95C171.54 60.68 172.67 61.05 174.07 61.05C175.21 61.05 176.14 60.78 176.87 60.25Q177.97 59.35 178.57 57.35C178.97 56.01 179.24 54.25 179.37 52.05C179.57 49.78 179.67 46.95 179.67 43.55L197.67 43.55L197.67 48.85C197.67 53.85 197.01 57.95 195.67 61.15Q193.67 65.94 190.37 68.75C188.17 70.55 185.64 71.75 182.77 72.35C179.97 73.01 177.07 73.35 174.07 73.35C168.87 73.35 164.61 72.71 161.27 71.44C157.94 70.18 155.34 68.08 153.47 65.15C151.61 62.15 150.31 58.31 149.57 53.65C148.91 48.91 148.57 43.21 148.57 36.55C148.57 29.75 148.97 23.98 149.77 19.25Q151.07 12.15 154.07 7.74Q155.69 5.38 157.85 3.74Q159.71 2.32 161.97 1.45C165.24 0.11 169.27 -0.56 174.07 -0.56Q180.37 -0.56 184.77 1.04C187.71 2.11 190.07 3.64 191.87 5.65C193.74 7.58 195.07 9.95 195.87 12.75C196.74 15.48 197.17 18.58 197.17 22.05L197.17 26.55L179.17 26.55ZM223.68 72.25L223.68 0.84L242.28 0.84L242.28 72.25L223.68 72.25ZM322.86 72.25L305.46 0.84L282.06 0.84L264.96 72.25L284.46 72.25L286.36 59.75L301.16 59.75L303.06 72.25L322.86 72.25ZM345.93 72.25L345.93 0.84L364.53 0.84L364.53 57.05L387.43 57.05L387.43 72.25L345.93 72.25ZM92.41 24.65Q92.21 29.35 92.21 36.55Q92.21 43.75 92.41 48.55C92.54 51.68 92.81 54.18 93.21 56.05C93.67 57.91 94.31 59.21 95.11 59.95C95.97 60.68 97.11 61.05 98.51 61.05C99.91 61.05 101.01 60.68 101.81 59.95C102.67 59.21 103.31 57.91 103.71 56.05C104.17 54.18 104.47 51.68 104.61 48.55C104.74 45.35 104.81 41.35 104.81 36.55C104.81 31.75 104.74 27.78 104.61 24.65C104.47 21.45 104.17 18.91 103.71 17.04C103.31 15.18 102.67 13.88 101.81 13.15C101.01 12.41 99.91 12.05 98.51 12.05C97.11 12.05 95.97 12.41 95.11 13.15C94.31 13.88 93.67 15.18 93.21 17.04C92.81 18.91 92.54 21.45 92.41 24.65ZM288.56 45.75L293.66 15.45L293.86 15.45L298.96 45.75L288.56 45.75Z" fill="#303030" fill-opacity="1.000000" fill-rule="evenodd"/>
</svg>
