<svg width="40.000000" height="40.000000" viewBox="0 0 40 40" fill="none" xmlns="http://www.w3.org/2000/svg" xmlns:xlink="http://www.w3.org/1999/xlink">
	<desc>
			Created with Pixso.
	</desc>
	<defs/>
	<path id="placeholder" d="M20 0C8.95 0 0 8.95 0 20C0 31.04 8.95 40 20 40C31.04 40 40 31.04 40 20C40 8.95 31.04 0 20 0Z" fill="#262626" fill-opacity="1.000000" fill-rule="evenodd"/>
	<path id="placeholder" d="M0 20C0 8.95 8.95 0 20 0C31.04 0 40 8.95 40 20C40 31.04 31.04 40 20 40C8.95 40 0 31.04 0 20ZM3.31 26.9Q2 23.72 2 20Q2 16.27 3.31 13.09Q4.63 9.9 7.27 7.27Q9.9 4.63 13.09 3.31Q16.27 2 20 2Q23.72 2 26.9 3.31Q30.09 4.63 32.72 7.27Q35.36 9.9 36.68 13.09Q38 16.27 38 20Q38 23.72 36.68 26.9Q35.36 30.09 32.72 32.72Q30.09 35.36 26.9 36.68Q23.72 38 20 38Q16.27 38 13.09 36.68Q9.9 35.36 7.27 32.72Q4.63 30.09 3.31 26.9Z" fill="#303030" fill-opacity="1.000000" fill-rule="evenodd"/>
	<rect id="3. Icons/ic_twitter" width="28.000000" height="28.000000" transform="translate(6.000000 6.000000)" fill="#FFFFFF" fill-opacity="0"/>
	<mask id="mask5_144" mask-type="alpha" maskUnits="userSpaceOnUse" x="11.600006" y="13.466797" width="16.799999" height="14.000000">
		<path id="Icon" d="M28.4 15.12C27.78 15.4 27.11 15.59 26.42 15.67C27.13 15.24 27.67 14.55 27.93 13.72C27.26 14.12 26.53 14.42 25.74 14.58C25.11 13.89 24.22 13.46 23.23 13.46C21.32 13.46 19.78 15.04 19.78 17C19.78 17.27 19.81 17.54 19.87 17.8C17 17.65 14.46 16.25 12.76 14.11C12.47 14.63 12.3 15.24 12.3 15.89C12.3 17.11 12.91 18.19 13.83 18.83C13.27 18.81 12.73 18.65 12.27 18.39C12.27 18.4 12.27 18.42 12.27 18.43C12.27 20.14 13.46 21.57 15.03 21.9C14.75 21.98 14.44 22.02 14.13 22.02C13.9 22.02 13.69 22 13.48 21.96C13.92 23.36 15.19 24.38 16.7 24.41C15.52 25.36 14.03 25.92 12.42 25.92C12.14 25.92 11.86 25.91 11.6 25.87C13.12 26.88 14.93 27.46 16.88 27.46C23.22 27.46 26.69 22.08 26.69 17.41C26.69 17.25 26.68 17.1 26.67 16.95C27.35 16.45 27.93 15.83 28.4 15.12Z" fill="#000000" fill-opacity="1.000000" fill-rule="evenodd"/>
	</mask>
	<g mask="url(#mask5_144)">
		<rect id="5. Colors/Gray 70" width="24.266666" height="24.266666" transform="translate(7.866669 7.866699)" fill="#FFFFFF" fill-opacity="0"/>
		<rect id="Gray 70" x="7.866669" y="7.866699" width="24.266666" height="24.266666" fill="#737373" fill-opacity="1.000000"/>
	</g>
</svg>
