<svg width="120.000000" height="19.000000" viewBox="0 0 120 19" fill="none" xmlns="http://www.w3.org/2000/svg" xmlns:xlink="http://www.w3.org/1999/xlink">
	<desc>
			Created with Pixso.
	</desc>
	<defs/>
	<mask id="mask4_200" mask-type="alpha" maskUnits="userSpaceOnUse" x="0.000000" y="0.000000" width="20.000000" height="19.000000">
		<path id="Icon" d="M10 15.27L16.18 19L14.54 11.97L20 7.23L12.81 6.63L10 0L7.19 6.63L0 7.23L5.46 11.97L3.82 19L10 15.27Z" fill="#000000" fill-opacity="1.000000" fill-rule="evenodd"/>
	</mask>
	<g mask="url(#mask4_200)">
		<rect id="Gray 85" x="-3.000000" y="-3.000000" width="26.000000" height="26.000000" fill="#4D4D4D" fill-opacity="1.000000"/>
	</g>
	<mask id="mask4_204" mask-type="alpha" maskUnits="userSpaceOnUse" x="25.000000" y="0.000000" width="20.000000" height="19.000000">
		<path id="Icon" d="M35 15.27L41.18 19L39.54 11.97L45 7.23L37.81 6.63L35 0L32.18 6.63L25 7.23L30.46 11.97L28.82 19L35 15.27Z" fill="#000000" fill-opacity="1.000000" fill-rule="evenodd"/>
	</mask>
	<g mask="url(#mask4_204)">
		<rect id="Gray 85" x="22.000000" y="-3.000000" width="26.000000" height="26.000000" fill="#4D4D4D" fill-opacity="1.000000"/>
	</g>
	<mask id="mask4_208" mask-type="alpha" maskUnits="userSpaceOnUse" x="50.000000" y="0.000000" width="20.000000" height="19.000000">
		<path id="Icon" d="M60 15.27L66.18 19L64.54 11.97L70 7.23L62.81 6.63L60 0L57.19 6.63L50 7.23L55.46 11.97L53.82 19L60 15.27Z" fill="#000000" fill-opacity="1.000000" fill-rule="evenodd"/>
	</mask>
	<g mask="url(#mask4_208)">
		<rect id="Gray 85" x="47.000000" y="-3.000000" width="26.000000" height="26.000000" fill="#4D4D4D" fill-opacity="1.000000"/>
	</g>
	<mask id="mask4_212" mask-type="alpha" maskUnits="userSpaceOnUse" x="75.000000" y="0.000000" width="20.000000" height="19.000000">
		<path id="Icon" d="M95 7.23999L87.81 6.62L85 0L82.19 6.63L75 7.23999L80.46 11.97L78.82 19L85 15.27L91.18 19L89.55 11.97L95 7.23999ZM85 4.09998L85 13.4L88.77 15.6801L87.77 11.4L91.09 8.52002L86.71 8.14001L85 4.09998Z" clip-rule="evenodd" fill="#000000" fill-opacity="1.000000" fill-rule="evenodd"/>
	</mask>
	<g mask="url(#mask4_212)">
		<rect id="Gray 85" x="72.000000" y="-3.000000" width="26.000000" height="26.000000" fill="#4D4D4D" fill-opacity="1.000000"/>
	</g>
	<path id="Icon" d="M120 7.23999L112.81 6.62L110 0L107.19 6.63L100 7.23999L105.46 11.97L103.82 19L110 15.27L116.18 19L114.55 11.97L120 7.23999ZM106.24 15.67L110 13.4L113.77 15.6801L112.77 11.4L116.09 8.52002L111.71 8.14001L110 4.09998L108.3 8.13L103.92 8.51001L107.24 11.39L106.24 15.67Z" clip-rule="evenodd" fill="#000000" fill-opacity="0.000000" fill-rule="evenodd"/>
	<mask id="mask4_221" mask-type="alpha" maskUnits="userSpaceOnUse" x="100.000000" y="0.000000" width="20.000000" height="19.000000">
		<path id="Icon" d="M120 7.23999L112.81 6.62L110 0L107.19 6.63L100 7.23999L105.46 11.97L103.82 19L110 15.27L116.18 19L114.55 11.97L120 7.23999ZM106.24 15.67L110 13.4L113.77 15.6801L112.77 11.4L116.09 8.52002L111.71 8.14001L110 4.09998L108.3 8.13L103.92 8.51001L107.24 11.39L106.24 15.67Z" clip-rule="evenodd" fill="#000000" fill-opacity="1.000000" fill-rule="evenodd"/>
	</mask>
	<g mask="url(#mask4_221)">
		<rect id="Gray 85" x="97.000000" y="-3.000000" width="26.000000" height="26.000000" fill="#4D4D4D" fill-opacity="1.000000"/>
	</g>
</svg>
